/* XPM */
static char *f27bffef6147469bb5b34de211d41179DY8JMaL6j1euiEPa[] = {
/* columns rows colors chars-per-pixel */
"64 64 64 1 ",
"  c #1C2124",
". c #1E2326",
"X c #1F2427",
"o c #202528",
"O c #212629",
"+ c #22272A",
"@ c #23282B",
"# c #24292C",
"$ c #252A2D",
"% c #262B2E",
"& c #272C2F",
"* c #282D30",
"= c #292E31",
"- c #2A2F32",
"; c #2B3033",
": c #2C3134",
"> c #2D3235",
", c #2E3336",
"< c #2F3437",
"1 c #303538",
"2 c #313639",
"3 c #32373A",
"4 c #33383B",
"5 c #34393C",
"6 c #353A3D",
"7 c #363B3E",
"8 c #373C3F",
"9 c #383D40",
"0 c #393E41",
"q c #3A3F42",
"w c #3B4043",
"e c #3C4144",
"r c #3D4245",
"t c #3E4346",
"y c #3F4447",
"u c #404548",
"i c #414649",
"p c #42474A",
"a c #43484B",
"s c #44494C",
"d c #454A4D",
"f c #464B4E",
"g c #474C4F",
"h c #484D50",
"j c #494E51",
"k c #4A4F52",
"l c #4B5053",
"z c #4C5154",
"x c #4D5255",
"c c #4E5356",
"v c #4F5457",
"b c #505558",
"n c #515659",
"m c #52575A",
"M c #53585B",
"N c #54595C",
"B c #555A5D",
"V c #565B5E",
"C c #575C5F",
"Z c #585D60",
"A c #595E61",
"S c #5A5F62",
"D c #5B6063",
"F c #5D6265",
/* pixels */
"jzMvddjejp61000y0<6ppeypeppeeepaeeepeepe,+1,$1yddgdgdddpgjde0wpd",
"gjbvdadyp010lbvNby8wydd0ee00weeeddddapew6=666gzljjjgddpppdde00ee",
"ewpde0e006<wvNzzgpp010pee086weeeeeeepaadp=600jzgjjggdapp0ppeew00",
"616041601660da086ede,106ew0eeypedppwweepp,61,0eedaaappeywpapyew6",
"046664w0=0yype00ppy61w0&0epppeypappppaap6;e0;10w0weypepyepdappee",
"e6800ee6,ygdpewaeee6,6w68epapeepeepppee0=$ee,40e680eeyepppdapdap",
"000wegp=0dayppey48w6=1epeeyppyyejde81<<,6=01=1eyw0eeeeyeepppdddp",
"0wyedzp+ypw0djaep0666we4dpeeyppp06,$,8jbb66=+4eypypeyeeewyyppddy",
"e8dwgd$6dpppeee000eee0edzpeew6,=&<0pzbzpedy1$;0dyypdaewwew00edgd",
"y1ypzg$0epppappppyppppdzljy1,<41jzbbbbvjepae4=1ejdppppyeypyepdda",
"e4pdj0@0yeadjjjjjddgjjzzjva,$1pdbMMzllzzgpdje,=1ddpepdjpepppdgdp",
"08dy6,$0eppypaddddglljjjzje,,wjbgggdadjgNjddp<==0pdepggdepeepddp",
"00e4;118pe0868000pjzzjjglw<10yajjddgjjapNleep0,$1egdpppeypyeyddp",
"w4,;4dj6ape866806edjvvlgd6,0dpwegddjzjdede80ye4$&1edappdddpypape",
"6,=6evb0pppeweee0wydzMzp6,<0pe08dapdgdypp64ey016=&<wpppgddpypap0",
";&<pdjze00eeeeeepy0ylMj0+=<46008Mzjdaeedd66ye11d6;&1066eeepypay8",
"10ye08ep0ww0616lae60ep6=+,edgd01agggday0w000648wj0;$,64=,1,6e86@",
"ypppeeeew66pdpddye006,==epadggp6ejvgadja0080w0epjjp1==161011,$11",
"jdppppp0e6yzgdlawep0,=1wappadjde6jMjajla08wyyepdlbvp1,<4;4,,$=ea",
"dpeyadpyd10jdjvppda8,6pjypdzvzdp,ezvbbbz00yaapdjjzzjae1=$=@,0edd",
"ppyyppppd=,0ezNpdje,,azjzNSDCzjj11wjbbbb60edddjvjzbzjp6==,=0dddw",
"ppppyppd66ep16adep6,6bSbbNNNzjdjp,$1066e<6edddjNzMNzp061=66eyeap",
"pppeyppp,pNz6$<e8416dbCNljlzjdajj6$=,===16edapjbzMbd0646,60ypwdp",
"peweypap4pljjw==0,1edppjbzzbvgapge64ee0600ppewpljjjdy01;6e0ddpp0",
"pedpead6pgzjjjw,,$<eegbzNvzzzgaddp0<40pe686611111111661;10edddee",
"eeypepp6adjjjjp0,$1ppgbzMvzbzgddbg8$++$@,,<,,14604111;,,668ypeep",
"paeey08egppdgddg<;4epgvvbvvbzjdgw0860eyw,;;==;,<6,=,;=<0bgaggpad",
"gje0e61edpeaapaj6140egbNMbzzjddddgzbNMzgvjde6,$@&&=&=1ejbldeyppe",
"pde0e01wdeydayyd466wajzbNbzldadjCbvzjddpbvbbvjdp=,,&,yzbdjd0ejge",
"60eepp61ppaddppa=60ylzggbbljdpdzdddjjgadypgbNSbv08418jbbdbzppdjy",
"60yppje=0pddppye=60ejjddjggjdpalddlbvgppzzzzzje8d4,8dglzzzgp0616",
"dpde0jj;6eayepew;011ydpjeypdpppgzddjgdjzvzzbNblda=+0zddvNjjly11p",
"yddpadp0,pa0wye0,$=6yyppe1,pjyedpjjdadgjbvbCMjddj$<pppeabMgje0jw",
"pepddppp=0eeye8611=;10dje41edadgjjzgdgjgjbDDlpdvd$,ppaagdlajp0gy",
"deeddepd$,60pe68pe1&=0peae0pdggjjzjggjjdpbDNdpdzp$<ppddjajdjawaa",
"dyepdpee$;,4w00yjp6;,86,jjdepjjdgdddddjddzvjdjlde@<ppddjjzzld00d",
"dppepd0,11,=110dape0<=10zvjyejjadapdggjggjpepzzgw$6pppdgzbzjd61d",
"pdaepa0$804==,1edzvd,X<jzzjepdjddaagjjlzjlgppdzz0$6ppadjzzzgd0=p",
"aapee01=,ew1;==,wdje;@1gllgyyddpddglljzbljjjpedj6&0dpdlvvzvjzw+0",
"pepaw,,1+8p6<,&$+=;$$108zldpeeppggjzjdjbbjpddpep8$0jpjzMbzbzNe 6",
"8epw1,0j8;;6we6=11=+&181jbjee0ezjzjdpadgdjjdddpe1=0zzbMjvNzbSe+=",
";8e816eyzy<=8dp801=&<081dle111wzlaepdadljjjgpywe0<1ejzNbNbjzz8=6",
"=60<1wp0pjy1pjaej0=;40616ee0066pd86pgadzlddjde64&==6jzbNNbbSz1$,",
",1,;4pa0yvp,18yCbw,=1160=6pga041e66edadjzppjle,,$,&&0ppvNNSCa1&+",
",=&,wpyeejp0e66be1;,1<6e48pdap0110epagddjppgp1<6ed4$=$,wzvlw<48,",
"$+$6ppepwepzSd1446806,,166ylljd6,0paajjaaady1=8lajd01=$&108,1yy6",
";=,<0papzy8pjdp00yde611<4;6djbzw16eagggjapw114pzeydgpe8;@,=,pp4<",
"801=,ydpe0wepjdwedge0wpp8+ =1gbd011ajjdzg0,;wjdydeee0dzy81@=p0$,",
"pzzp,@,w1pzjdajlpe1&0zbNCzy,+@6jw18edzza646ejljappyeypdjdjp<&1yp",
"zzvblp1$0pgjjgdye11pjw6djjzlp1&+=,wapdjd1wddppajapyppdddaay60dzz",
"bjdjbbd8=,,8dzjd1<0zb6,dddzMMd8,=@=16w0<0dljpedjapepdjgdjp0ylbNM",
"jdpepjzbaw1<4661<azjaw0ddpedzzvby<$=$,1=jdgdggdadpeydggdlpegbvjj",
"ydggppdjNbd0,$==8MCp00epdeepdagjjddw$+6dzjddjzjdaapyppdjdpplzgpp",
"gjjgjdddddjd0,<16glp080pddpppeeyapdp<=ezjjzjjddjaapyyeddeydzzddd",
"zjddgzzjddgd0,==<wpeyw0ydpepyypda0we11eddlzzdadjapppppypeazbljjj",
"jjjzljgdgpeye6,,1ep0wpw6060eapppdpdp<;ebllljjddpppepdae0pjbbzjjj",
"llgjjjjgdadjde6=,ep0epypweepaapppdpe060jjzzzlgaapdgpydy0jjdjjdgj",
"ljjjjzlldyadpe0=1ep0eeeyeeppaapppdppe16jddzzlgdpjpedzdeejddjjdgl",
"ljjlzzzlgpdjpp0<1pdepeepepppaaaappppe<6jdjlzljggdpdjp8ejjddddgjj",
"ljjjjzjjldddew1=<pdpypeppeyyppppgdepw,6vgjjggjjzdzle8ejjjdddddjz",
"jjgjzzzjdpap01,@<pdppyepeyeyypppddppw=,edddjjdddzd06dCbpggpppdjl",
"ddjzbbbvdadp611,;egpppyppeeeeepppapdy,$=epjzjgppp66dMzjpjdppydjj",
"djjzbbbzddgp1,0e$edpppydpeeeepppegdpp8=$18wppeew80azjppjgjdeedjj",
"zzzzzzjddad0$$6p+0dppppdappeeepdpjaepy06$&&==,11dzbjdggpjjdeeagj"
};
