/* XPM */
static char *_9429d8070c0477ec3517c489a70a7f2fvhMvS3Vph30TTFN[] = {
/* columns rows colors chars-per-pixel */
"64 64 135 2 ",
"   c #000306",
".  c #0B0F12",
"X  c #0F1014",
"o  c #141519",
"O  c #161A1C",
"+  c #1C1E22",
"@  c #1E2224",
"#  c #222326",
"$  c #24262A",
"%  c #26292D",
"&  c #292B2E",
"*  c #272A31",
"=  c #2C2E32",
"-  c #2C2F38",
";  c #2E3135",
":  c #2E323A",
">  c #313336",
",  c #363837",
"<  c #33353B",
"1  c #38373D",
"2  c #36393D",
"3  c #393B3E",
"4  c #333740",
"5  c #363A41",
"6  c #3A3D42",
"7  c #3B3F48",
"8  c #3E4146",
"9  c #3E434A",
"0  c #3F4650",
"q  c #414346",
"w  c #42454B",
"e  c #45494E",
"r  c #494B4E",
"t  c #444750",
"y  c #454B52",
"u  c #4A4D53",
"i  c #474E58",
"p  c #4A4F58",
"a  c #4D5156",
"s  c #475059",
"d  c #4D535A",
"f  c #4F585D",
"g  c #505356",
"h  c #51555B",
"j  c #54595D",
"k  c #565A5D",
"l  c #54595F",
"z  c #555A5E",
"x  c #565B5F",
"c  c #54595E",
"v  c #58595D",
"b  c #595A5E",
"n  c #4D5560",
"m  c #4E5760",
"M  c #4E5760",
"N  c #4F5861",
"B  c #505761",
"V  c #525762",
"C  c #515860",
"Z  c #505960",
"A  c #525961",
"S  c #515A61",
"D  c #535A60",
"F  c #515862",
"G  c #515A63",
"H  c #535A62",
"J  c #545861",
"K  c #565960",
"L  c #555A60",
"P  c #565B61",
"I  c #555962",
"U  c #545B63",
"Y  c #565A63",
"T  c #535C63",
"R  c #575C60",
"E  c #565E61",
"W  c #555C62",
"Q  c #545D62",
"!  c #575C62",
"~  c #565D63",
"^  c #535A64",
"/  c #525B64",
"(  c #535B66",
")  c #575B64",
"_  c #555C64",
"`  c #545D64",
"'  c #575E64",
"]  c #565D67",
"[  c #555E67",
"{  c #575E66",
"}  c #565F66",
"|  c #555B62",
" . c #585B60",
".. c #595C61",
"X. c #595C63",
"o. c #5A5D62",
"O. c #5C5D61",
"+. c #595E64",
"@. c #585F65",
"#. c #5A5F65",
"$. c #595D63",
"%. c #565F68",
"&. c #575E68",
"*. c #595D68",
"=. c #5A5F68",
"-. c #576067",
";. c #5B6064",
":. c #5A6265",
">. c #596066",
",. c #5D6065",
"<. c #5C6167",
"1. c #5E6166",
"2. c #5D6266",
"3. c #5E6367",
"4. c #5C6166",
"5. c #5B6268",
"6. c #58606B",
"7. c #59626B",
"8. c #5B626A",
"9. c #5E6369",
"0. c #5C636B",
"q. c #5E656B",
"w. c #5D646C",
"e. c #5D636A",
"r. c #606165",
"t. c #616469",
"y. c #60676F",
"u. c #61666B",
"i. c #666B6F",
"p. c #63686C",
"a. c #616870",
"s. c #636A70",
"d. c #666B71",
"f. c #676C72",
"g. c #646A71",
/* pixels */
"y s i i i 0 9 d 0 d s s d s s N p B p h d p h n p 0 t i i y 0 0 d 0 i s d s s i r u 3 :.5.q.F 7.-.N w.a.i.#.l E ` F -.l f N / -.",
"9 t 9 0 d i t s 8 d s i s s d ` f K l K j i B f d t 0 t 0 t i t t e e e d f F f E a $ f 5.` 7.7.F ;.w.;.f.X.E ,.;.d j :.` d f N ",
"y i 0 9 w t w i < a a a d d s a K E x x h e h K f s t i w q u 6 9 e a l l j s 9 g f 8 e d x K l #.d.f.9.i.u u t.-.-.E :.j E ;.E ",
"* 5 9 9 i a d d e d w 9 a d f d d u 8 w w 3 w u t i e u u r q q 8 w 8 w 8 a y y g 8 ; ; 8 9 9 e y a a y u O $ r e h e 2 ; : & & ",
"y d F l d d i t y u 8 8 f F z ` 0.h < e r i y y i y e e e 8 $ 1 w w 8 8 < 9 e d 2 e 3 a X.a F a j l x X.x < 6 b j l j u r 8 o 3 ",
") l y 9 9 w 0 9 8 e 9 a ` l d f ) h 2 i w u t i i e 0 e a f , j d h j ` d f d l w x g a a y d d a y d h x u u ,.E a l h X.d % r.",
"B d i t 0 0 9 7 9 s e y m f d n h p 6 i 8 8 9 t 9 9 9 9 8 e 5 f w w e e i i d f e 8 w y l F 0 d t i a i j l 9 ;./ F F d h ;.2 2.",
"F d d i t 0 0 y 9 d y i ` ( N s *.f 5 w 9 9 9 t 9 8 9 u 8 e e s f a s y s i s d a z 9 e y i a s d N ` f E l 4 f.6.( ` F l :.w k ",
"h e u u r j y 9 9 a a 8 r r r u u q 6 w q q 6 q q e w q e q 8 ; e a 8 3 r w u 6 6 r > w e u w e w h h u e 6 6 r.;.d x O.E r , h ",
"l i ; + 6 j y d a e g a $ $ 3 3 6 w u u u i 6 > w - ; > 6 6 2 6 < < ; @ > 1 u e r g 8 u d e 8 > , e g q 6 q w h e < 8 u k v u h ",
"d l 1 $ w j y a u w w g , w u g y h h l v b u 6 d 6 w q u u q e e u a 2 6 e h a u e 6 9 i 0 e 2 9 9 i y w y i d w ; 8 a h #. .d ",
"i h u e r u a e 9 d e a 3 w 3 q q 8 w q u g j g g q u e u u e 6 9 q y , = w r a a y 0 t e y f w y t 9 t 9 9 9 t u q u k u u l d ",
"h y w u e u K u e e r a > 6 g q e q e e a u e w u q w u e q e w w w e 1 & e q y e e a F d d g 8 t y w 7 9 9 9 9 r g u a u h O.=.",
"u w 6 6 q e i u h q e u & ; g q 6 8 w 8 q 6 < & q 6 q e w 8 a w 4 6 4 , & u w i e u f -.` ;.g 3 9 t 9 7 y 9 9 e w r w u j d l K ",
"9 6 6 < 6 w 9 y 8 w q q & & q 3 = 2 6 6 6 8 6 4 1 > 9 6 6 8 w < e 8 2 & & 6 1 w w w u e y e w ; 8 8 4 w w 8 9 8 q r e h a 6 q 9 ",
"i 8 w 2 8 h j K X.O.g v g v g ; 1 6 6 9 6 q 9 q q * 6 e q 8 8 8 5 6 8 < q 6 8 9 u e j w a e u 6 w w w w 6 q u 1 r g h r.u < e h ",
"i 0 0 8 0 a s f  . .g g h h b 6 < < 5 1 < 4 4 4 q # < 1 6 > 3 e , > > ; 1 6 u X.K X.K ) t.x g e 6 5 6 : 6 7 e 7 p y h p t w d w ",
"m t 8 8 0 j l 7. . .p y e u a > 5 4 4 < < < < 6 > = 6 q g r w u a a r e g h b h a g p g j k j 8 7 : 2 4 6 q e e 7 y h p 8 4 t t ",
"d s 8 8 ; 6 < e u h r i a g e % 6 5 1 > ; < < 7 = # r u e u h w e h a w w w E #.O.h h g u j j , w : 5 5 e q q u y u u g 6 6 9 w ",
"u 0 8 w q u 8 6 6 q 6 7 7 w q < $ * 1 4 4 4 ; ; = ; u r u e q q w u e y l l p.#.O.h h u u g h 6 8 < 5 6 q q 1 q h u g h 2 > 7 w ",
"r e w 8 6 q e 6 6 e w y 8 9 w e > 1 9 t y u w t q 1 r u u e q e a a 0 y d u #.K h h r w r r t 8 6 8 w q q 6 1 8 e 8 2 < 1 ; 6 8 ",
" .h K l O.l q o < 6 6 9 7 6 < 8 3 1 7 6 6 w q w r = 1 q q w 6 6 e a d j h 6 6 > 7 q 5 < 5 1 1 , q g a e r g d l g a ; & j j a h ",
"X.X.) p y q u 1 4 2 < 4 6 5 5 9 > 2 w t t t 7 4 8 3 > > w q ; q w 8 6 2 3 > & O 1 6 7 7 9 w a u 1 j a u y l  .) u a 3 3 k j h ;.",
"#.#.&.i 6 > w q % < 9 5 7 4 < 8 2 2 7 7 t p t w w q r q q w 1 q q 8 q 2 3 q 3 > 6 7 q 7 6 u g q < x a u i h ` ) d a e g d j h i ",
"u.9.;.j t 6 6 6 1 & + = * = # ; ; ; & 3 6 2 w 8 8 r r 3 , 3 q q 2 < 9 8 : 8 5 , q 6 6 7 6 5 a r 1 k a s d d w f f u e 8 x a d -.",
"u.#.` K p q 6 6 > < X = < 8 8 2 , 3 & = 8 8 1 3 8 1 3 3 3 3 1 6 9 6 < < 8 < ; 8 w q 6 q t t r 9 q r h ` l d a e u e 8 < ;.:.` ;.",
"j i y e q 6 1 < 1 q $ 1 ; : ; - ; q 3 > 1 4 1 6 < > > 1 1 , 1 3 5 9 8 2 : ; < 2 q q 6 q t r r q % $ = ; < 8 8 8 6 1 $ # e e e l ",
"j d e 9 7 q q 6 > ; $ > : < - < < , q 1 = 6 1 1 , 1 , > > 1 3 q < w 9 5 ; : 8 : % 1 1 6 1 q q w 8 3 > $ 8 8 e u q r q 3 , + & a ",
"h d y 8 6 w u 6 q q = 1 1 1 : 5 6 < 6 > = < > > 1 , = * = > , 1 3 3 & = < & % ; # q a a w u u d r r q ; w 8 w w q 6 2 q w 3 1 h ",
"d l l e w u u e q g = 6 = 6 6 3 7 q 6 > < < > q 6 1 , 1 3 3 6 r e , > 6 8 2 8 w > q g g r g g a e 6 q , 8 8 y 8 w 8 8 8 1 8 , k ",
"a d h a e y e q r g & > > 1 6 ; < 5 % $ < > & & & = > 1 6 1 6 q 8 = q r 2 8 g d w q g a a g g d a q 8 ; 6 8 t 9 y e q 5 w d = h ",
"h a d i e 6 6 6 3 1 q > 6 > 3 q 6 q e u q 1 1 & > 1 1 6 q u w 1 , = 3 8 3 w w r r 6 u g h a i u w w > $ w e 9 i 9 i y 8 e 7   > ",
"l #.j K x x 8 ; 6 3 w 7 4 w w 9 w y e 6 4 2 < 1 = > 1 q q w 6 < , & 1 1 1 1 > q 9 O , 8 w , , 3 , , , , 6 9 8 w 8 , , > 2 a a f ",
"u.a.9.#.h d u u a h y < q e 6 e y e i w 6 4 6 = 1 1 1 6 r e q 1 3 = , > > > = 6 3 ; 9 9 9 u r & > q y a a g r r u 8 6 > w u.5.z ",
"g.V h I X.l t 6 6 8 : % 6 1 3 8 6 > & @ = < q q 6 q q 6 6 = < ; , & > = = = & > o 3 u r r a g r , 9 8 9 5 y e r e < < > 9 u.7.0.",
"w.V ) ) l e a e 5 < < < 6 < a e h h : O 3 < = , 1 q 6 1 1 $ 6 = > > > 1 1 1 1 6 3 3 6 r u k :.r 6 0 8 9 5 y u 0 e 3 2 2 2 #.F 5.",
"t.) u.j e 3 8 8 7 5 6 5 < * 9 w u r > O 6 < = < 1 1 1 > 1 $ 2 < = = < < 1 5 1 6 6 u r w f E a a 3 9 0 0 9 r y y w w > > > u.,.;.",
"O.h y q 8 5 < # * < 5 * < % * 6 w 8 2 ; 1 4 6 6 1 > < 1 1 @ & , 2 2 2 3 1 , 6 w 6 , 8 9 r r q , 3 8 6 , 6 8 , 8 w w 3 1 > r j x ",
"K i 6 < < 6 q w - 2 7 1 9 6 4 9 * = 2 3 5 6 6 < q > = 6 q < : < : < 8 3 < & > 3 5 6 6 , , # , r e 8 8 q a a ; e k g u r 9 ; u h ",
"d i 7 6 < 6 2 4 8 < 2 1 < 5 < : 2 2 ; ; 1 4 - = > > 6 6 > ; & < : 8 8 8 2 & ; < 5 2 , 8 9 , a r r r a r a f 3 p.E j u w h < #.K ",
"y u q 6 5 6 < 9 4 w 9 < 5 6 6 5 2 ; < < < 5 < - ; < 2 ; - ; : 5 ; 2 < 5 8 < 2 9 0 5 6 2 3 8 , 9 r a u a r g u E E g j g j 0 E E ",
"h t 5 6 5 q q w 6 4 2 2 < : ; < 4 < 2 6 4 < - * ; : 1 ; < 4 3 8 8 w 8 8 5 , 2 8 u 9 9 6 6 6 , 3 e r E g r g q g k d d g k a j r ",
"K u 7 y 7 q q 7 < 6 6 2 5 2 5 8 6 2 6 6 6 < - ; 2 = ; : ; 3 8 3 8 e 8 8 6 , , q 0 9 6 , , , , 3 q e a a r e , 0 g g a y u u f a ",
"h d d h u w 6 ; 1 6 6 , < 1 1 2 6 2 < < 2 2 ; 6 8 2 , ; : 2 2 6 2 8 w e 9 8 8 q y 0 8 8 r 9 0 9 e r 2 r u q 0 9 w e 8 5 2 e j j ",
"E l h i u  .6 1 8 1 2 3 1 > = 2 e w 9 6 9 e q e 8 0 8 ; 6 5 , r e u a g g g a q a a u f E r u u u u = 8 0 9 0 8 8 8 : 5 8 :.:.E ",
"l f z e y X.1 6 5 6 2 2 6 4 6 6 5 5 5 : 8 e 9 5 8 8 8 8 , , 3 8 g k k f g r a r 0 u u E Q r 0 y u q 2 6 8 9 : 4 5 8 < 8 y -.j ;.",
"f d F y w i < < 4 w 9 : = 1 5 4 : - 4 5 9 y 9 8 0 - 8 8 ; , q , u f k g r r a 9 9 y u f d 0 9 y u 8 6 6 8 9 : 4 4 : : 5 y d d X.",
"w.d a y 6 w 6 ; 5 8 5 : : : 5 0 5 : 4 5 9 t e 9 9 0 5 ; 8 8 3 a r r r r r g a 3 9 9 9 a d y 8 8 8 8 ; , 4 8 8 4 : - : 8 j 9.E ;.",
"5.E l ` w w = ; 6 6 1 > - < + 3 , : , 5 0 9 9 8 9 8 8 , , 9 q 3 8 8 8 r e u 8 ; 8 u r a g r w 8 r q = & & > 1 1 > = 1 1 7 =.t.t.",
"d a a a 6 6 1 4 q 6 = > 6 q $ = ; , : , 6 ; : 2 ; ; ; $ ; 9 3 6 r w 8 8 8 9 9 4 3 8 5 8 8 6 6 3 w q 3 2 2 > 1 < 1 > 6 w q u u p ",
"e w 9 w 9 6 6 4 q w 1 < 1 1 = # O ; ; ; 8 3 3 3 5 , ; , 5 u 8 8 9 9 e e 2 ; 2 4 8 8 2 8 8 8 8 e q q 2 2 2 2 6 3 6 6 6 6 q 6 u y ",
"e 0 9 9 w 6 8 < 1 q 2 ; > > , # % 8 6 6 0 8 , 2 8 5 3 5 9 0 : 8 < 5 8 e 8 5 4 4 4 ; : 5 , 3 8 w a e 3 2 2 < 2 : 6 q q 1 w 9 y t ",
"8 8 9 9 9 < 6 1 : 6 : - 5 1 1 X % 3 3 8 9 5 ; 0 2 2 8 2 6 6 5 8 9 9 8 y < 8 2 5 5 : 2 5 , , 8 8 6 6 2 6 6 3 3 < w < 3 2 w 9 9 i ",
"0 9 w 9 w 6 q 6 6 9 < ; 6 6 8 O @ 8 0 8 8 5 ; 5 : 2 8 % , 8 8 6 t i e a & : ; 5 8 - 2 5 3 8 8 0 u a y e 8 2 6 6 < : e a d l 9 q ",
"E d d a h j u r 8 6 < : 5 9 u 8   , 3 , * 2 ; % : 2 2 $ % 2 ; ; ; < 6 9 3 w q 8 8 $ * < , q q r u e 6 3 2 2 w e e e u 9 6 a l j ",
"E f X.j d u r e t 9 5 5 8 8 w u , r r g 9 8 3 , * 2 3 , @ $ @ ; $ = q q e e g e a : : 8 r k f k g y 3 6 8 y a a u a d K w y d l ",
"N m E j f l i 6 8 2 2 9 9 9 r w g a a f f e 8 0 8 8 e w 7 9 6 7 t 9 y y t u w t e 8 6 r a 9 f g g u e > ; q r 9 a y a d 9 9 t i ",
"=.K E j j X.h u w 6 q h y 2 q u 9 0 9 a r 3 2 0 8 5 6 8 4 4 4 4 9 6 y d i w 6 w e 2 2 w r 8 r f h e q q 9 < 7 e t e e 8 6 9 e y ",
") f h d k x u q q q q r a r e , r r r 0 9 6 2 8 8 2 5 2 1 4 4 6 8 w a r w e 9 w e , 8 8 9 9 a a r q 3 > q 1 7 7 0 w 8 6 6 6 9 e ",
"l l h g x ;.u r r j u e r g u , 9 9 8 8 8 2 5 8 9 5 6 3 4 6 6 6 4 w r u u u w 4 6 > 8 6 6 8 e q 3 r q = ; < 7 q 8 8 8 8 w 6 6 u ",
"l g a u h x g k g g e w q 6 3 , 8 8 8 8 5 8 9 e 8 3 3 < 1 4 6 6 w < < w u w q 8 : @ % ; : ; ; ; , > = = 8 6 6 6 2 8 6 3 8 8 8 e ",
"i u a u u a r a u a u l j u e r u u d r 9 8 e d f e y a u u i u d 8 < 8 u u a a j e e u g h h h g k k k k e e d u j d 9 8 u a u ",
"s t d d i u e e > u l l B p d h d g z j e 9 e i d y a y y a i s e s e s f d l y d F d y x -.7.E #.X.;.;.p.w.w.;.7.a.a.E h ` 7.` ",
"s 0 y y 0 y e a q a i i B B h d a e d ` d u a a a e a y y u i a e s d F f i d d f F d f w.E 7.9.` ` w.w.:.` x l f l ;.w.E j ` ) "
};
