/* XPM */
static char *_914f6d2888a4b46c1f0c4f70a4323a8JCoX8j5mEq4VHPwO[] = {
/* columns rows colors chars-per-pixel */
"64 64 146 2 ",
"   c #000005",
".  c #05050D",
"X  c #07080D",
"o  c #090A0F",
"O  c #0D0D14",
"+  c #111216",
"@  c #14141B",
"#  c #17181D",
"$  c #1A191F",
"%  c #191722",
"&  c #1C1C23",
"*  c #221F26",
"=  c #1F2025",
"-  c #212126",
";  c #24242B",
":  c #28262C",
">  c #27282D",
",  c #292A2F",
"<  c #262630",
"1  c #2C2C33",
"2  c #302F35",
"3  c #2F3035",
"4  c #2D3039",
"5  c #313136",
"6  c #34343B",
"7  c #38373D",
"8  c #37383D",
"9  c #393A3E",
"0  c #343740",
"q  c #363942",
"w  c #3C3C43",
"e  c #3F3F49",
"r  c #413E45",
"t  c #413F4A",
"y  c #3F4045",
"u  c #424146",
"i  c #44444B",
"p  c #49464D",
"a  c #47484D",
"s  c #49494E",
"d  c #474751",
"f  c #484651",
"g  c #464952",
"h  c #4C4F56",
"j  c #4E4E56",
"k  c #4F4F57",
"l  c #4D4D55",
"z  c #4B4B53",
"x  c #4C4F58",
"c  c #4F4E58",
"v  c #504F54",
"b  c #504F55",
"n  c #514E56",
"m  c #514F5A",
"M  c #4F5054",
"N  c #4F5055",
"B  c #4F5055",
"V  c #4D5059",
"C  c #4E515A",
"Z  c #4F525B",
"A  c #4E5159",
"S  c #515055",
"D  c #505155",
"F  c #505156",
"G  c #525156",
"H  c #525157",
"J  c #515256",
"K  c #515257",
"L  c #535257",
"P  c #525357",
"I  c #515256",
"U  c #505058",
"Y  c #515159",
"T  c #525358",
"R  c #50535A",
"E  c #52525A",
"W  c #53535B",
"Q  c #545358",
"!  c #535458",
"~  c #535459",
"^  c #51545B",
"/  c #555459",
"(  c #545559",
")  c #54555A",
"_  c #56555A",
"`  c #56555B",
"'  c #55565A",
"]  c #55565B",
"[  c #51545D",
"{  c #52555E",
"}  c #53565F",
"|  c #54545C",
" . c #55555D",
".. c #57565C",
"X. c #56575C",
"o. c #56565E",
"O. c #57575F",
"+. c #53535B",
"@. c #58575C",
"#. c #59575F",
"$. c #57585D",
"%. c #57585D",
"&. c #59585D",
"*. c #58595D",
"=. c #59585E",
"-. c #58595E",
";. c #595A5E",
":. c #595A5F",
">. c #59595E",
",. c #565760",
"<. c #565A63",
"1. c #585860",
"2. c #595961",
"3. c #5B5A60",
"4. c #5A5B60",
"5. c #5A5A62",
"6. c #5B5B63",
"7. c #595C63",
"8. c #5C5D61",
"9. c #5C5D62",
"0. c #5E5D62",
"q. c #5D5E63",
"w. c #5A5D64",
"e. c #5B5E67",
"r. c #5C5C64",
"t. c #5D5D65",
"y. c #5E5F64",
"u. c #5E5E66",
"i. c #5F5F67",
"p. c #5B5B63",
"a. c #5C5F68",
"s. c #5F5F69",
"d. c #605F64",
"f. c #605D64",
"g. c #5F6064",
"h. c #5D6069",
"j. c #5F626B",
"k. c #616267",
"l. c #606068",
"z. c #616169",
"x. c #62626A",
"c. c #63636B",
"v. c #64646C",
"b. c #63636B",
"n. c #686870",
"m. c #6B6B73",
/* pixels */
"s u i p i s p 7 0./ @.@.v s / / 1.,.5.m Y  .z l a > s.z z z z z l W s M P B y # %.s y a M a s R ( ( } g. .a w u [ u i ; x w z t ",
"u u i u i p u 7 &.v v G v v G v l z l l  .u.' u.m < 5.z z z l z M  .M M a B i & ^ s s M M h s M z a B <.5.Y z z z i e ; d q w t ",
"u u p i u p i 6 d.L v / L / G s Y z f a l l d { [ 1 m a z z z m S ' S z i ' M + %.D D %.;.%.R ;.l s i g m m Y ,.z Y i 1 l e w a ",
"9 u u r 9 p u , &.s p v v s v u f t i a S Y l u.l 1 l z Y l l | ' B z l M :.l   R s a D M h a s 5.A a z z z Y ,.c 1.z & c u w t ",
"v p l p s @.v 7 ;.s S ' _ &.&.G | l | [ u.d. .v.w 1 f m Y l f b ( B B B s *.M O g.;.^ %.R D M M l Y {  .m s u e i  .z + l i z q ",
"5 3 5 , , 7 5 = S i i i u u r r t e u w t t q e < ; w d a u q w 3 , , , $ - > X s a y y y y y y z l Y m z u e w q c z % l l | i ",
"9 7 7 9 7 7 8 5 7 5 5 3 - = - - & ; > * 1 q 6 6 6 6 u i d d w q 6 3 , 5 3 > 3 3 = = > > 3 , 3 3 1 1 1 > ; ; ; ; + < < # 1 6 6 < ",
"0.;.k.k.;.( ;.:.' ( *.*.s s D @.l | ,.z Y x.s.d.r.r.r.6.6.d.[ z a 6 , y a y y y a y a s s a a a l l l c c c z a i r.1.v.1.n.5.c.",
"Y b Y l l l { 1.S S B 1.w y v.z i l ,. .l z z l Y Y Y Y  . . .u.B 9 ; y B M a M a z a s s M M a z z z l z a z 5.i r.d.,.| | m l ",
"z l h g g a g g z l l ^ w w u.d a z c Y Y Y Y [ Y Y | Y Y ^  .#.*.9 = 8 M a a a a a s s s s a M z z z l z a z  .q m 5.m z z z l ",
"h z h z g a g g g g z Z q q 7.i d f z z m Y l z Y  . .Y Y  . .Y g.y = 5 a a a a a a a a s s s s z f z l z d l 5.7 z 1.z z l m Y ",
"i g z h h h g g a g B Z q q w.i z a a f l l z a l  . .l l #.,.m ( 9 = y M a a a a a a a s a s a d z z l z d l  .q n | z l |  . .",
"y g g x x x g g g g V } q q h.g z f z z l l B m z W Y l c ;. .z g 6 > y R a a a a i u a a a a a a f z z z z z Y 6 z l f c  .Y l ",
"g g g g x x g g g x V ,.q q h.g z z z z l l l l Y [ Y l l | Y z y 3 , y B a a a i i a a a a a a a d a d f z z l 6 z l z b | Y l ",
"x g x x x x x g x V C Z q q j.V z l l l l z z z Y Y m b Y Y z z y 3 ; y M a a a a i i a y a a a i i a d z d z z 6 z  .b Y [ Y Y ",
"g g g g x x x x x C Z { q q h.V z z z b [  . .Y Y z z Y Y Y l l a 3 = y M a a M a a a y a y y u d a d a a d d f < a  .Y z l l  .",
"x x z z f l l z c l | d.q q u.z f f z l c A Y Y Y W Y z | u b f s 3 ; u P u s P i P a u u i s i f e i d y a z t ; c Y l { z Y Y ",
"z [ 5.,.Y Y l l [ 6.6.,.6 6 v.d.m Y Y c c l z z m | 1. .r.f m t y 3 > u P z ' 9.;.:.M ( ( S P i z u u z m  .Y a # d x.u.Y Y 5.z ",
"e l ,.5.| l c l i i 1 ; * < f a w e w u t t w w 6 q q w q 1 0 < > = # , 8 3 6 9 M a u a u 9 t 9 w w 6 q t e 6 6 % w 5.z 6 e z w ",
"& < 1 1 1 < > 1 & 4 & & w 2 4 % 1 1 1 1 1 4 2 1 6 6 6 6 : > w 6 y y 8 u i y i u y y y 9 - - q e w e 6 1 2 1 < q 6 < % @ * 6 # @ ",
"r.6.1.,. .| |  . .n.z w 6.l s.c.Y Y Y Y Y Y Y l z l z a 4 6  .1.B $.^ w.e.,.r.5.( g.g.A q t v.f.1.6.m Y 5.,.[ d.[ c.c.c.s.i & m.",
"| z z d z l Y ,.w S i i m.z z d Y l Y Y Y l l Y z m Y m 1 6  .| i a a z z d f f i B A z 0 t d.f l f a m r.#.z z l c i z x.d . c.",
"i u e i i a l  .z f 6 q m.d d u z z z l l c Y l f z b | 1 w | z f l i z l e d e z c ,. .t f s.d [ z | s.5.Y z i a z d i l d . v.",
"z z z z i t a b i p t i v.q i z Y Y Y Y Y l z z z z z [ 1 t 1.c g g y z x i d d l c 6.s.q q 5.c z z d.n.l u d z a d z u a ,.+ c ",
"i d f a a a d a q z q i 6.i [ l a i z Y z i z z i z l 6.; d 6.z [ c x x z f f f z [ 1.5.w e f.d z 1.u.W z z b l f z a a z u % d ",
"m [ [ l l l z d t z 5 q d.l Y z z u d z f i a i c Y l 5.< i 1.z c z z c x f f x c { | ,.q q f.x b 1.5.[ z l Y l c Y z f z w @ w ",
" .1.1.| Y m z z p m 6 7 n. .Y b z i a z z m Y z z d a ,.2 d d.5.[ c x z z d d f Y  .{ $.0 2 m x  .5. .l z z l z z l z z Y f & d ",
"5.u.r.5.1.5.,.Y i | q 2 v.Y z m i w t d a z l a m c z r.w d r.5.m m m z z p z f a l A $.w 1 m r.n.v.5.Y l c m z m Y l l Y z & q ",
"5.u.u.5.5.5.5.| | 1.2 < s.,.f l [ c Y b z l Y l z a z r.e t | 1.P P P D B ^ ' ^ ( :.*.g.w > l g.m.x. .z z l l z c z z z l l ; 6 ",
"d.d.x.7.9.u.u.6.m.u.6 ; x.v. .[ c z m l z l  .m m [ 1.s.z a 1.| P P P D l S l s P *.M B 9 , S v.n.x.1.Y m | | [  .c z z Y  .1 q ",
"m Y Y B l Y [ m r.z 2 ;  .d.| c 5.Y | [ Y 5.u. .5.6.| m t q u q 9 9 y 9 9 9 7 6 , 5 > 8 5 3 S u.u.6. .| | [ c l  .z i u u f ; 1 ",
"% % % % & ; > > < < < & w i w w w 6 1 1 < 2 4 ; $ # @ + @ # > # @ $ - - > > > > , 3 $ > - # ; ; 6 6 6 6 6 6 < > & # % & 1 t ; 4 ",
",.m x m m ,.m x c { z z c x d & 0 t f t u t w w s p r u 9 r r * a g.5. .Y s l z l l l l z i i e e i i i d d f z c q < ,.f { ,.e.",
"x m x m m [ x l f c f c [ ,.x 1 f m ,. .m m n z s s u s r u p : g.m.x.$. .l Y B z z z z z z d a d f g g z l x x c e < m t x t f ",
"f m x m m x z z f m c c m m z < t c x f p f a i p p u s u p p : B 9.Y z l z l z a d z z z z d a f f z z l z z d z e 0 { z m c f ",
"x m m m x x z z x m z x z z d 1 t t z z p z z p p u u p u u u : i { Y Y 1.' { l z z z z z s a i g f f z l z g z f t 4 m c ,.m ,.",
"m m Y b z z z z f l g l z z l 6 t l m m b b l z s p p s p u u - u 5.,. .1.m m z d f z z z d i i g z z c l Y l l z z 6 l d m x m ",
"| | m z z z z z f l t g d z z 6 t l l m z z p i s s p s u u u - e Y z z z a z z a z z z z z f a g g z c c Y B Y z c 6 f t [ f m ",
"[ l z z l m m z z z d g z a a 3 t m m m S S s a p p u p u u u - i Y f a z h Y Y z z z z z z z z f f f z l l l Y f Y 6 f a Y z | ",
"l z z z Y Y m z z z f x A l g 4 t t m m s v v M p p u s u p p - i c u w z l l z Y l z z z d z z f z z z l l m l z  .6 d i c i z ",
"p i M M s M M B M ( M i a M a 3 t m m m t m m f s n u p u u u - i u z i l 5.f c Y l l l m l l l s M s M M s s M a $.6 M y s M u ",
"l i a i a M M M s M M a s B a 3 m m m #.m m m n s v p s p s i : z d x a z c a  .Y  . .Y l h z z a a M M M M M J z S 3 P u i a M ",
"s s s z B B ( ( ( ( D M M M y = t l m t f p f f p v p p p i u : l t i i z l z { z l Y l z c m l M D ! D s a u y ^ s 1 ' M a a a ",
"9 i i M s a a M ' ( ( D M M y ; t t m m 3./ m #.Q ;.( L v p i 3 z q 6 e a f i u u z l z z l l a M s s a M ' ;.;.S y > B $.B a y ",
"# > # $ = # $ $ # # # # + @ @ o ; * 4 * 5 5 2 0 5 7 2 7 1 : , @ < % $ * & & ; % & ; ; & ; ; & @ # + o X + - 3 3 , = + - 1 3 ; = ",
"u a , 3 a y i y i i u u r u p t t t t @ 1 7 6 0 5 7 5 7 7 5 9 , q q q w < 1 p z Y m l l Y A Y b 3 5 9 y y u y 8 8 9 9 8 3 8 y y ",
"J g.y u 8.( 8.*.:.' ' @.S L / / m ,.#.% r f t t p p i p p i ' s z l l z q t c.5.l z d l l b 1.v.= 9 M ! J J M s u a M a u u a M ",
"8 J 8 y a 3 8 y y 9 w u u i t t t t f + r #.m p s s p v p s 5.S b b z f q t #.w i e w e q q f d.3 y M y 8 9 a M y 9 u u a i y y ",
"y M 3 s 9 r u u p u u i u t i i a f l & e a e a d d a z l Y Y l z m z z 7 q ,.i d i e i e w e z y 3 ! a y y u s M s p p u p r u ",
"y s 3 M 9 9 r r a u u i i i t i p g l & e a e d a d z z z z z z l m z b q q 1.i d i y i e w t g y 3 M a y y y u S s p p p u p u ",
"y s 3 M y r r u i i i p f t f f d z c * u d e i z l m l l l l c l Y n m w w | i d i i d u e i z y , s y i i u y i u u u r p p p ",
"u a 3 M r r u u i i a p f f f f d z c ; i z t u z l Y Y B l m Y l Y m o.w 6 [ i d i i d i u u d 8 3 D a a s i u u u r u p p p t ",
"u s , v r r u s i p f f f f f f a z l & e z e e a i a d z c l l Y Y Y 5.w 6 c i a a i i i y d d 5 3 R a y a i u p p p p p p r r ",
"u s , v r r r p f p f f l c l c z h l & w z u e i u a d l Y b l m Y Y 5.w 4 l a d d d i e d e i 3 3 ;.M y y u y r r r r r p t p ",
"u p , / p u u p z f f n f l c c l c B % w l i t i d d z m Y Y Y Y  . .u.e 1 l d z z d a i y i i 3 3 ' D M a a a r r r r t r p p ",
"p s 5 ;.v p p s z z f f l l f c S Y A % w l i a e i d z z z l A  .Y  .x.u 1 l z c l d i i i i i 3 3 ;.R M R D M _ n n p p p p p ",
"7 r 7 v r p n p t W m z l z x g m z 7 1 q u i p w 6 d e m | z [  .l  .a q 6 w t z w q q w t e 6 , 1 3 5 5 5 5 7 r 9 7 r r r r 7 ",
"2 2 * 2 : * : & & 2 1 2 6 6 0 4 1 4 > & < 4 < 1 < O 1 > 1 < ; ; ; % 1 & * & > & @ & > ; ; * ; ; = = > ; - $ * = * * $ @ * * : * ",
"r p p p p t p 7 t W S W ,.{ ,.[ W #. .Y 1.1.m Y a > d d z f d i z a c z Y | [ 4 w 5.u.S m l z Y i s M S v s s v s v p 2 / n n p ",
"r r r r p p Q 2 W d.| m Z x ,.[  .5. .Y #.| | 5.f & u z a z z d z a c z l m f + z u.Y t z z i z i a l s s p p s i L n : f.n n t ",
"r p p r n p L 2 g.v.,.[ ,.Z ,.} [ #.| Y Y Y Y 5.c < z z i i d i i a l f z c m O d 5.z q i g i z a a a i u t u u 7 n n $ #.t p r ",
"p p p r p p p , A <.A [ <.Z { { Y  .| | #.Y l W d 1 z a i i d a i z Y z z l 5.@ z 5.Y z a y y g i i y y r p i i r n n $ n r p p ",
"r p r n p p p 6 B $.V } <.{ { {  .5. . .6. .l W w 6 | z z z z c z z l z i a  .O c l z z g u y i a a u a n Q Q Q n f.n : n r p n ",
"r p r n r v i 6 5.7.x x } x { } 5. .Y Y  .l z m 6 q  .d z z a f c z l c z z 5.O ,.i w z Y Y B a M s a M &.f.&.Q p n t : n r r r "
};
