/* XPM */
static char *_9d682be781c4946f406a8baca9e6caa9VAB5KdbGLtM7MSF[] = {
/* columns rows colors chars-per-pixel */
"64 64 160 2 ",
"   c #0C0C0E",
".  c #0D0C12",
"X  c #111216",
"o  c #141518",
"O  c #18171C",
"+  c #1B1A1E",
"@  c #1D1D22",
"#  c #201F25",
"$  c #1E2125",
"%  c #222225",
"&  c #25252A",
"*  c #29272C",
"=  c #27292D",
"-  c #2A2A2E",
";  c #32312F",
":  c #272A32",
">  c #2C2D32",
",  c #2F2D38",
"<  c #302F34",
"1  c #2E3035",
"2  c #2E3139",
"3  c #323236",
"4  c #363837",
"5  c #383A37",
"6  c #34353B",
"7  c #38373D",
"8  c #36383D",
"9  c #3A3A3D",
"0  c #353740",
"q  c #393742",
"w  c #363A42",
"e  c #3C3C43",
"r  c #3D3E49",
"t  c #403F45",
"y  c #413E48",
"u  c #3F4045",
"i  c #3E424C",
"p  c #3F4650",
"a  c #414246",
"s  c #4A4C47",
"d  c #44444A",
"f  c #48474D",
"g  c #46484D",
"h  c #49494E",
"j  c #4E504F",
"k  c #434651",
"l  c #4A4750",
"z  c #454A54",
"x  c #4C4C53",
"c  c #464D59",
"v  c #4A4E59",
"b  c #504F55",
"n  c #514F5B",
"m  c #4E5156",
"M  c #475059",
"N  c #4D515B",
"B  c #505156",
"V  c #515056",
"C  c #525156",
"Z  c #535057",
"A  c #515256",
"S  c #515257",
"D  c #535257",
"F  c #515155",
"G  c #525256",
"H  c #505058",
"J  c #535258",
"K  c #525358",
"L  c #545158",
"P  c #545358",
"I  c #555358",
"U  c #545359",
"Y  c #515459",
"T  c #535458",
"R  c #545559",
"E  c #55545A",
"W  c #55565B",
"Q  c #56555D",
"!  c #56575C",
"~  c #54545E",
"^  c #56565E",
"/  c #57565E",
"(  c #57575F",
")  c #54545A",
"_  c #58575E",
"`  c #57595D",
"'  c #58595E",
"]  c #5A5B5F",
"[  c #585C5F",
"{  c #5A5E5F",
"}  c #595A5E",
"|  c #4F5561",
" . c #4F5861",
".. c #515560",
"X. c #525662",
"o. c #575761",
"O. c #535661",
"+. c #595762",
"@. c #545861",
"#. c #555962",
"$. c #545863",
"%. c #565A63",
"&. c #535A64",
"*. c #555964",
"=. c #565864",
"-. c #575965",
";. c #565A65",
":. c #575B66",
">. c #555A63",
",. c #585860",
"<. c #595961",
"1. c #595963",
"2. c #5A5A62",
"3. c #5B5C60",
"4. c #5B5F63",
"5. c #5E5F61",
"6. c #5D5C62",
"7. c #5A5A64",
"8. c #5B5B65",
"9. c #595B67",
"0. c #585C67",
"q. c #5D5C64",
"w. c #5E5D65",
"e. c #5E5F64",
"r. c #5F5E64",
"t. c #5C5C66",
"y. c #5E5E66",
"u. c #5C5C63",
"i. c #585C68",
"p. c #5B5D69",
"a. c #5F5F69",
"s. c #5C5D69",
"d. c #605F65",
"f. c #615F6A",
"g. c #5F6065",
"h. c #5F6064",
"j. c #5E6166",
"k. c #5F6267",
"l. c #5E6065",
"z. c #5E626A",
"x. c #5F6573",
"c. c #606166",
"v. c #616266",
"b. c #606068",
"n. c #63636B",
"m. c #62656A",
"M. c #65656D",
"N. c #62636B",
"B. c #66696E",
"V. c #66696F",
"C. c #646470",
"Z. c #676771",
"A. c #646670",
"S. c #656871",
"D. c #666A71",
"F. c #6A6A74",
"G. c #6E6E76",
"H. c #6A6B75",
"J. c #6F6F79",
"K. c #70707A",
/* pixels */
"n.C.M.V.S.G.x - s d e 8 u 9 u u 9 u 9 & < c.n.3.8.<.8.<.<.<.Q %.} Q Q <.<.d 6 s.4.=.=.=.%.=.%.N = g h l 8 q %.%.i.%.=.%.%.%.....",
"F.C.y.v.y.m.h * x l e e d a u a a a a - < Q <.W L L W L D Q <.Q Q H D x N a 6 O.x D H N D m T k 1 d h x 8 6 m T M N N c x M N m ",
"h.n.} 3.3.j.h * u d u u g u d a a a y 6 < t l L D D D m b F H m D b b l l e , z m v N z x H N g & l l l e > x m m x z x M z z z ",
"W c.y.{ e.h.F 3 e g u u u d u u t a a 7 - d d W D D D b x D D m x x s f v a 1 g m N z M z N N k > h h x u > i z x M N k z z M g ",
"h.f.d.] } c.s 4 a d g i d u u u 7 e a 3 * a f b D D D x b h l x m l h x l t > m m x z z m v N x > h l x d > k c c z l c p c z p ",
"} e.d.{ 8.e.d 4 a d i s g u u 5 8 5 7 > > l d d F W W H D l h h f h l h x 9 3 M D N M x v m D c > d x l u & i z c z g i z p z p ",
"! { { e.3.j.d 3 u d a g d s u u e 9 9 - < d l a a d l Q x s l h x h h h h e 3 v D m N m v F D z - 3 7 6 >   : 6 3 3 8 8 w 8 6 8 ",
"F c.{ } 3.%.a 4 a d u d i a i u e 9 e < 3 x h d a d a m x l l l g h d h v a , x D N m H x F ~ i & m z.j.n.y.Q Q 3 * t t e e u 8 ",
"F c.c.{ e.} t 4 e u u u a u 8 4 9 9 t < - f l h d d s n b h g h x h v l x a # g Y N K N ) H Y k # 3.S.C.N.M.M.q.g > q 6 6 6 q 6 ",
"s { h.{ } _ a 7 3 3 e u u d 9 > 3 e 9 > 9 t d f d f x b v h v l l l h f d 8 * x T N T N H m T N > W %.+.j.<.} n.e - q 6 q 6 7 < ",
"3 a d a e a 9 5 * 3 3 1 < 6 > 3 = 6 - & d 6 7 3 6 7 4 4 9 9 e 7 1 9 9 7 3 5 8 x T m v H ) H T x > 4.3.q.4.s.3.q.m , 8 6 0 6 6 , ",
"> H O.Y N N N N Y N > 1 b x v n a h l F n x a 7 9 a a a a 7 @ a J.N.N.M.B.m.2 z N m N N Q m T m > d 3.M.C.<.d.{ b , 8 6 q 6 6 < ",
"8 i.O.| %...O.%.i.z 8 v n L L L f x D L P _ a 7 t a s y d d 3 u N.k.e.e.3.<.7 d  .N N N z N N T > d D %.M.j.{ e.v > 7 7 6 7 6 < ",
"> z z z M x x D m g w g b b H H a F b x l L a 4 7 3 d d u s 8 a j.4.<.e.3.! 9 1 w i k z e 7 w 8 = 8 g s z l x f 3 < * < 6 , < < ",
": k c z M m D H m z 3 d +.) v g h b m D D h < 5 5 9 e f d g 3 s j.{ ` <.e.{ 9 > 8 9 e 9 u e 9 % < s.s.9.+.o.) Q n L ~ n ~ ~ ) v ",
"> d N N x v m m m d 8 e l l d d D x x D l a 7 9 9 a 7 a h d 9 a e.h.3.} j.` 9 e a s F s d d h a # h Q W Q Q W K W D b b v b L l ",
"8 w c m M x N m m i 9 e l N x n E W L D d b 6 3 e a a 4 8 a 7 4 ] m.{ e.d.{ 9 8 u e e e e a e e % a H H b h b b h x b l b F b f ",
"6 k i z N x M m h i 3 h m h b h l b b a l b > 3 9 4 8 8 > 7 4 5 { c.c.c.n.e.e w a a u r u e e a % a W W b b b h b b l h x h F d ",
"2 M z i g z x K g i w > d h e h h f 9 t a e & - 7 e 5 7 5 9 3 9 ] d.c.h.y.} 9 7 r e a a e e u w * e l b v f d d a d h b b D b h ",
"6 p M z i p N x q d u 9 > 9 e e t e t a d a 7 5 4 - 5 , 3 8 7 3 s s s s d s 7 @ - > % % * - > * # - 9 9 7 3 > @ # * > 6 e t 9 e ",
"2 N M z z p z i g g 6 1 W } } L P H _ n.n.y.8.+.) : v C.<.q.3.e.7.+.s.f.m.f.3.+.~ Q r 8 d h e } _ q.z.s.j.C.N.8.v 4.C.j.c.f.M.y.",
"= z M M z z z k N i 2 u 3.} E P P D L P _ _ L Q h 3 e f.s._ _ } } _ _ 3.{ { d.+._ <.6 y j.y x N.N.N.j.z.M.C.M.M.G.K.H.C.j.z.D.Y ",
"1 w M M z p p z x c 3 a E W W P P D L P F D D D r 8 6 x L L L P I P _ L I I R P T L , 8 c.a 6 n.j.4.%.%.y.4.3.j.N.z.4.%.3.y.j.W ",
"3 w c z M z p z z k = f } L W W D x h m h x x d e 6 6 d h D D D P T P W I F T F P L 0 w d.%.3 y.j.<.y.l.y.j.j.j.y.j.s.4.j.c.c.F ",
"= > i c M z z z M i = 9 s Q P L m F h h x x n L v - e a l H m v j F x D L x F K F L q 9 3.j.e ` n.{ e.d.j.j.N.j.j.z.e.j.c.n.d.b ",
"d w 1 z x z c z N z = e x W m l m v v l b H b b f * e H T x x D h P m h m h F P D W e 8 _ m.l d M.h.h.e.e.3.j.h.y.y.] c.c.d.M.E ",
"w N 2 i N M N x N p @ e H l z x x D x F b v l b l & e v D x L b v l x l b F b b b L e 6 } c.e.9 h.k.c.c.e.e.3.y.{ } e.j.6.] { ] ",
"2 M N 8 m m m N N u $ 3 l T l l l x x F b x D D 7 * y _ K W T H F b H L m D P E } d.k & D y.n.a ` B.c.v.c.d.n.v.{ } } W ] } c.F ",
"= 4 d i > d x k k w & = 7 e 9 t a d a a e d d e % @ 8 q y r a w q w 8 w 7 8 t d d d q 7 a d x a e W W H x m D x h f f l b n b s ",
"= - & & * > 1 3 1 - % + % * 3 > & @ % o % * + % - > 6 < 1 3 ; 1 1 3 | ~ N c q @ * > , 8 9 9 9 9 > > % 1 i k z N N v c c x z l - ",
"> 9 9 3 e e 7 < 3 e 3 9 5 3 3 q 7 % 3 Q n.f.s.z.M.c.y.e.} 3.L a e z.x.z.s.z.z & h x h b D F D m K h & w j.i.s.| N v | &.N z.N w ",
"- 8 t e e a t e d z d h g d a u d - d S.n.j.N.N.c.<.3.e.e.q.c.D 8 x.M M ~ ` e - x x b b F F L W H g 2 g %.N N M c N c c c v w w ",
"- 7 e e 9 9 9 u a u 9 u u d d d a * a j.4.4.} <.6.Q } Q ] _ 3.W 7 v ..M ~ &.i 3 P x h b F P H l d d 3 d W Y W N M M c c N N p w ",
"> 7 t 9 a u 9 e u u 9 7 e q a d , & e c.j.y.<._ 6.} d.Q ] 3.3.E 8 c ..z z l.k 0 W P L W } F u a d m 1 r %.N Y N z z N M c N p w ",
"1 u a e 5 9 t 9 e e 9 8 e u a d 9 % 7 N j.y.<.q.6.} } d.3.3.3.+.e i Y ..k N z e } P ] W s q d d d D 1 w N &.T N M M M N v v k w ",
"8 u a e 9 7 4 e 9 9 e 8 u e e a d @ h x ~ y.q.3.} d.d.} 3.+.3.e.6 i O.~ O.k u w L L h u t f a l h v 1 2 N ~ ~ W M N N N c N z w ",
"4 e 9 d a d w 8 9 8 8 e y t q e d # d +.y b } 3.} E Q 3.e.] 3.3.1 g H P Q O.2 > d a y f h l h F h } 7 1 u N W W H N N N c v c r ",
"* 7 a a a d a u 3 e 9 e t e e a 6 @ - b t l e.} d.n ~ ~ y.d.y.y.1 k T K ) &.w : E L W m m D D F L W 9 = w r M ~ N N T M c Y v w ",
"= * 3 3 9 9 5 4 5 > - - < < < 6 % % # d d.h } 3._ b d b W _ { W 1 z ..N N %.z # e d x W ! P } I } h > o i w i N Q H N N N T m w ",
"$ - 1 - 3 - & % & * & , < * * * % - * 3 t < 6 7 < 6 - ; e 9 5 7 d 3 3 q 8 6 3 # t e 9 h m h h v d q > % | c 2 k N Y o.Y Y W M u ",
"} V.m.j.m.H % e l x x b h f y f f f d l x - . 3 6 < 6 & 7 W 9 W P a { } } h e = x x h f d g h d a m 2 2 N O.z i z N T ) Q =.c w ",
"e.c.<.y.j.H * l F D x h d f h d f x h x P u + d d y d 7 h W b c.h.` N.<.j.j.s + u m H L m D D D W K 2 1 c | M z i z N W Y Y k u ",
"} } Q 8.N.h - W x h f f s d v x h D x L b 8 + q a t e > 7 h W e.z.3.<.l.d.c.j & < e h d a d h h s e & : w i d i i w z N N z k r ",
"W n.c.M.s.H - s l x d d k b b h l m x h m u @ 9 q t d 7 - ` e.{ j.3.} e.{ c.s % @ : * * = 9 e q 6 * 1 = : 3 9 3 : $ : & $ : : & ",
"H n.n.W W L - 3 y l t f h x x F F h f x z r # t r 7 u 8 a e.} 4.s.%.W ` <.T d & < q 3 e 1 <.Z.M.n.Q W T _ <.<.x 1 d < 3 u a a > ",
"W n.} } { L > e e e k v T F h b b D d u d u - 9 u a e 8 a ` } e.n.3.W P T j.A - 6 e a e e d M.N.n.<.Y 3.4.j.S.H 7 H b f H x D z ",
"} e.e.{ y.} > u d d h x b x x F b h l b d y & 6 e a 9 6 9 { ` %.j.z.3.K D K j > 6 6 q a 7 d 3.e.3.3.` %.j.y.j.m & q d d h b b d ",
"b y.} j.j.W - e f b b b b x b b D b x v l a & 9 e 9 q 7 5 5.j.h.j.j.j.j.W ! s > 7 e q 9 6 a Q 3.j.3.3.e.j.<.Q s - x e 7 x v v u ",
"s _ e.} ` u 1 & w k a e e 9 8 7 e t t a a 6 % , 6 : * % 3 H P } } { K K P m 9 O , 3 3 8 > a } } Q Q 3.c.<.` } h < f v t d v b e ",
"3 - 8 9 9 1 7 = * # 7 a r a e a e % % , > % X # % * > > 1 6 3 = 7 a 8 * 4 8 e e e q 1 & & a <.3.T 4.m.c.3.e.j.v < a D x 7 e l 8 ",
"3 o h l a e h v l 6 x n.y.y.e.j.} $ v c v c z v v c z N N k 2 l D b h a a l W } W T m l 3 9 D } E P } e.d.e.q.D 3 6 d e d a e , ",
"e + x W D D L L H 8 u e.~ 4.%.4.L - z z z z z ) N N v v O.z : H W m m D <.D t b P v m <.d < t d a 4 d s a d a a > @ , 6 6 , 6 @ ",
"e * l W b v L D b 3 a } <.` <.3.h $ M N z N z d k v v c z v > d L b L L D W h d F H h L a % 7 8 a 3 + : e - & , > 9 t 6 @ - 6 6 ",
"e 6 d l L b D P L ; a { ~ { %.y.d & c v v z z c c v c | ..z 2 u F b b F D D L v a D K W e 6 h d s a % d l h 7 s f x l l * q e 1 ",
"t 1 9 a d l L b t & d 5.` ` ` <.u 2 c v k k k z c v r v z z , e s h P L W D H d a f d v e - d s d e * l l d b L v h x a & 8 > < ",
"e > d d d a h d f 7 d e.` ! L { l 6 v c c d z z c c c q k k > y d d F h l b n a f d d s 9 & l l b d & e f b n l f h f 0 * * 6 8 ",
"e > h d a s z x E t s 3.` W ! 3.m = z N M m x c N c k i z k = q d a g d d h g d x x v D 7 6 D b L H , h D h h d f h e d % < q 7 ",
"t > a l z x h d l 7 a P 3.3.} j.D & & i M g z z k p i i z w w = e l e e d l e e 3 9 h d 3 > h l h f > d h d a d b a y f % < 2 6 ",
"8 @ > , 6 3 1 : 3 6 8 g s a 5 e 4   # > > : : > : - 1 2 $ : 2 + > 6 > - & * - * > & @ # % & - > * & @ 9 d f f d d t h f & , 7 q ",
"# # # % @ # c N x c z z i + 7 d a a q q 9 a 9 % O 1 1 1 , & @ @ @ + + @ * 1 # % l ~ d s l q 8 e h l % % , 8 7 > > < 7 * X % * @ ",
"e e 3 e > & x N N z k k k : d H b f l d d d x 8 $ e r e r q e 6 * * 3 q u d q * x L A F D D b v l D 9 8 d e 7 1 - - 7 e 9 t a a ",
"q e e e 8 @ i N c r p z c & 9 x d d d f d y f 3 # e e e a d u d u e e e e i 7 $ a b h h x H h h h v e 9 <.} W D d d W <.e._ n.n.",
"0 e a e 3 $ 8 i i k z N N > 8 l d d y t a d f - @ e e q q u a a e u 9 7 e d , $ d b x b x l f x h x a > ` y.} e.3.} M.3.[ 3.<.} ",
"e 8 e 0 - @ p z z N v N N 2 e h t a f a a l h < O 7 t e 8 e e a q 8 e 7 9 e 3 # d L h v b h h h x b 9 3 l y.} _ <.e.<.} } ` ! ` "
};
